<svg width="181" height="181" viewBox="0 0 181 181" fill="none" xmlns="http://www.w3.org/2000/svg">
<g clip-path="url(#clip0_0_90)">
<g filter="url(#filter0_d_0_90)">
<path d="M44.6836 101.179C43.7205 101.179 42.9002 100.917 42.2227 100.393C41.5451 99.8643 41.0273 99.0994 40.6694 98.098C40.3114 97.0923 40.1325 95.8778 40.1325 94.4545C40.1325 93.0398 40.3114 91.8317 40.6694 90.8303C41.0316 89.8246 41.5515 89.0575 42.229 88.5291C42.9109 87.9964 43.729 87.7301 44.6836 87.7301C45.6381 87.7301 46.4542 87.9964 47.1317 88.5291C47.8136 89.0575 48.3335 89.8246 48.6914 90.8303C49.0536 91.8317 49.2347 93.0398 49.2347 94.4545C49.2347 95.8778 49.0558 97.0923 48.6978 98.098C48.3398 99.0994 47.8221 99.8643 47.1445 100.393C46.467 100.917 45.6467 101.179 44.6836 101.179ZM44.6836 99.7727C45.6381 99.7727 46.3796 99.3125 46.908 98.392C47.4364 97.4716 47.7006 96.1591 47.7006 94.4545C47.7006 93.321 47.5792 92.3558 47.3363 91.5589C47.0977 90.7621 46.7525 90.1548 46.3008 89.7372C45.8533 89.3196 45.3143 89.1108 44.6836 89.1108C43.7376 89.1108 42.9982 89.5774 42.4656 90.5107C41.9329 91.4396 41.6665 92.7543 41.6665 94.4545C41.6665 95.5881 41.7859 96.5511 42.0245 97.3438C42.2631 98.1364 42.6062 98.7393 43.0536 99.1527C43.5053 99.5661 44.0487 99.7727 44.6836 99.7727ZM55.7546 101.179C55.0046 101.179 54.3292 101.03 53.7283 100.732C53.1275 100.433 52.646 100.024 52.2837 99.5043C51.9215 98.9844 51.7234 98.392 51.6893 97.7273H53.2234C53.283 98.3196 53.5515 98.8097 54.0288 99.1974C54.5103 99.581 55.0856 99.7727 55.7546 99.7727C56.2915 99.7727 56.7688 99.647 57.1864 99.3956C57.6083 99.1442 57.9386 98.799 58.1772 98.3601C58.4201 97.9169 58.5415 97.4162 58.5415 96.858C58.5415 96.2869 58.4158 95.7777 58.1644 95.3303C57.9173 94.8786 57.5763 94.5227 57.1417 94.2628C56.707 94.0028 56.2106 93.8707 55.6523 93.8665C55.2518 93.8622 54.8406 93.924 54.4187 94.0518C53.9968 94.1754 53.6495 94.3352 53.3768 94.5312L51.8938 94.3523L52.6864 87.9091H59.4876V89.3153H54.016L53.5558 93.1761H53.6325C53.9009 92.9631 54.2376 92.7862 54.6424 92.6456C55.0472 92.505 55.4691 92.4347 55.908 92.4347C56.7092 92.4347 57.4229 92.6264 58.0494 93.0099C58.68 93.3892 59.1744 93.9091 59.5323 94.5696C59.8945 95.2301 60.0756 95.9844 60.0756 96.8324C60.0756 97.6676 59.8881 98.4134 59.5131 99.0696C59.1424 99.7216 58.631 100.237 57.979 100.616C57.3271 100.991 56.5856 101.179 55.7546 101.179ZM67.2683 87.2955L63.0495 102.969H61.6689L65.8876 87.2955H67.2683ZM69.0309 101V99.8494L73.3519 95.1193C73.859 94.5653 74.2766 94.0838 74.6048 93.6747C74.9329 93.2614 75.1758 92.8736 75.3335 92.5114C75.4954 92.1449 75.5763 91.7614 75.5763 91.3608C75.5763 90.9006 75.4656 90.5021 75.244 90.1655C75.0266 89.8288 74.7283 89.5689 74.3491 89.3857C73.9698 89.2024 73.5437 89.1108 73.0707 89.1108C72.5678 89.1108 72.1289 89.2152 71.7539 89.424C71.3832 89.6286 71.0955 89.9162 70.891 90.2869C70.6907 90.6577 70.5906 91.0923 70.5906 91.5909H69.082C69.082 90.8239 69.2589 90.1506 69.6126 89.571C69.9663 88.9915 70.4478 88.5398 71.0572 88.2159C71.6708 87.892 72.359 87.7301 73.1218 87.7301C73.8888 87.7301 74.5685 87.892 75.1609 88.2159C75.7532 88.5398 76.2177 88.9766 76.5543 89.5263C76.891 90.076 77.0593 90.6875 77.0593 91.3608C77.0593 91.8423 76.9719 92.3132 76.7972 92.7734C76.6268 93.2294 76.3285 93.7386 75.9023 94.3011C75.4805 94.8594 74.8945 95.5412 74.1445 96.3466L71.2042 99.4915V99.5938H77.2894V101H69.0309ZM84.5316 87.9091V101H82.9464V89.571H82.8697L79.6737 91.6932V90.0824L82.9464 87.9091H84.5316Z" fill="white"/>
</g>
<g filter="url(#filter1_d_0_90)">
<path d="M93.67 100L101.802 83.9134V83.7713H92.4271V81.8182H104.075V83.8778L95.9782 100H93.67ZM112.822 100.249C111.78 100.249 110.842 100.041 110.007 99.6271C109.173 99.2128 108.504 98.6446 108.001 97.9226C107.498 97.2005 107.223 96.3778 107.175 95.4545H109.306C109.389 96.2772 109.762 96.9579 110.425 97.4964C111.094 98.0291 111.893 98.2955 112.822 98.2955C113.567 98.2955 114.23 98.1209 114.81 97.7717C115.396 97.4225 115.855 96.9431 116.186 96.3335C116.524 95.7179 116.692 95.0225 116.692 94.2472C116.692 93.4541 116.518 92.7468 116.169 92.1254C115.825 91.498 115.352 91.0038 114.748 90.6428C114.145 90.2817 113.455 90.0982 112.68 90.0923C112.123 90.0864 111.552 90.1722 110.966 90.3498C110.38 90.5214 109.898 90.7434 109.519 91.0156L107.46 90.767L108.56 81.8182H118.006V83.7713H110.407L109.768 89.1335H109.874C110.247 88.8376 110.715 88.592 111.277 88.3967C111.839 88.2013 112.425 88.1037 113.035 88.1037C114.147 88.1037 115.139 88.37 116.009 88.9027C116.885 89.4295 117.571 90.1515 118.069 91.0689C118.572 91.9863 118.823 93.0339 118.823 94.2116C118.823 95.3717 118.563 96.4074 118.042 97.3189C117.527 98.2244 116.817 98.9406 115.911 99.4673C115.006 99.9882 113.976 100.249 112.822 100.249ZM131.618 96.5909V95.6321C131.618 94.9692 131.754 94.3626 132.027 93.8121C132.305 93.2558 132.707 92.8119 133.234 92.4805C133.767 92.1431 134.412 91.9744 135.169 91.9744C135.939 91.9744 136.584 92.1431 137.105 92.4805C137.626 92.8119 138.019 93.2558 138.286 93.8121C138.552 94.3626 138.685 94.9692 138.685 95.6321V96.5909C138.685 97.2538 138.549 97.8634 138.277 98.4197C138.01 98.9702 137.614 99.4141 137.087 99.7514C136.566 100.083 135.927 100.249 135.169 100.249C134.4 100.249 133.752 100.083 133.225 99.7514C132.698 99.4141 132.299 98.9702 132.027 98.4197C131.754 97.8634 131.618 97.2538 131.618 96.5909ZM133.429 95.6321V96.5909C133.429 97.1413 133.56 97.6355 133.82 98.0735C134.08 98.5056 134.53 98.7216 135.169 98.7216C135.791 98.7216 136.229 98.5056 136.483 98.0735C136.744 97.6355 136.874 97.1413 136.874 96.5909V95.6321C136.874 95.0817 136.75 94.5904 136.501 94.1584C136.253 93.7204 135.809 93.5014 135.169 93.5014C134.548 93.5014 134.101 93.7204 133.829 94.1584C133.563 94.5904 133.429 95.0817 133.429 95.6321ZM122.563 86.1861V85.2273C122.563 84.5644 122.699 83.9577 122.971 83.4073C123.249 82.851 123.652 82.4071 124.179 82.0756C124.711 81.7383 125.357 81.5696 126.114 81.5696C126.883 81.5696 127.529 81.7383 128.049 82.0756C128.57 82.4071 128.964 82.851 129.23 83.4073C129.497 83.9577 129.63 84.5644 129.63 85.2273V86.1861C129.63 86.849 129.494 87.4586 129.221 88.0149C128.955 88.5653 128.558 89.0092 128.032 89.3466C127.511 89.678 126.872 89.8438 126.114 89.8438C125.345 89.8438 124.697 89.678 124.17 89.3466C123.643 89.0092 123.244 88.5653 122.971 88.0149C122.699 87.4586 122.563 86.849 122.563 86.1861ZM124.374 85.2273V86.1861C124.374 86.7365 124.504 87.2307 124.765 87.6687C125.025 88.1007 125.475 88.3168 126.114 88.3168C126.736 88.3168 127.174 88.1007 127.428 87.6687C127.688 87.2307 127.819 86.7365 127.819 86.1861V85.2273C127.819 84.6768 127.694 84.1856 127.446 83.7536C127.197 83.3156 126.753 83.0966 126.114 83.0966C125.493 83.0966 125.046 83.3156 124.774 83.7536C124.507 84.1856 124.374 84.6768 124.374 85.2273ZM123.238 100L135.738 81.8182H137.762L125.262 100H123.238Z" fill="white"/>
</g>
<g filter="url(#filter2_d_0_90)">
<path d="M90.5 181C40.598 181 0 140.402 0 90.5H3C3 138.748 42.252 178 90.5 178C138.748 178 178 138.748 178 90.5C178 42.252 138.748 3 90.5 3V0C140.402 0 181 40.598 181 90.5C181 140.402 140.402 181 90.5 181Z" fill="white"/>
</g>
</g>
<defs>
<filter id="filter0_d_0_90" x="34.1324" y="81.2955" width="56.3992" height="27.6733" filterUnits="userSpaceOnUse" color-interpolation-filters="sRGB">
<feFlood flood-opacity="0" result="BackgroundImageFix"/>
<feColorMatrix in="SourceAlpha" type="matrix" values="0 0 0 0 0 0 0 0 0 0 0 0 0 0 0 0 0 0 127 0" result="hardAlpha"/>
<feOffset/>
<feGaussianBlur stdDeviation="3"/>
<feColorMatrix type="matrix" values="0 0 0 0 0.988235 0 0 0 0 0.454902 0 0 0 0 0 0 0 0 1 0"/>
<feBlend mode="normal" in2="BackgroundImageFix" result="effect1_dropShadow_0_90"/>
<feBlend mode="normal" in="SourceGraphic" in2="effect1_dropShadow_0_90" result="shape"/>
</filter>
<filter id="filter1_d_0_90" x="86.4271" y="75.5696" width="58.258" height="30.679" filterUnits="userSpaceOnUse" color-interpolation-filters="sRGB">
<feFlood flood-opacity="0" result="BackgroundImageFix"/>
<feColorMatrix in="SourceAlpha" type="matrix" values="0 0 0 0 0 0 0 0 0 0 0 0 0 0 0 0 0 0 127 0" result="hardAlpha"/>
<feOffset/>
<feGaussianBlur stdDeviation="3"/>
<feColorMatrix type="matrix" values="0 0 0 0 0.988235 0 0 0 0 0.647059 0 0 0 0 0 0 0 0 1 0"/>
<feBlend mode="normal" in2="BackgroundImageFix" result="effect1_dropShadow_0_90"/>
<feBlend mode="normal" in="SourceGraphic" in2="effect1_dropShadow_0_90" result="shape"/>
</filter>
<filter id="filter2_d_0_90" x="-6" y="-6" width="193" height="193" filterUnits="userSpaceOnUse" color-interpolation-filters="sRGB">
<feFlood flood-opacity="0" result="BackgroundImageFix"/>
<feColorMatrix in="SourceAlpha" type="matrix" values="0 0 0 0 0 0 0 0 0 0 0 0 0 0 0 0 0 0 127 0" result="hardAlpha"/>
<feOffset/>
<feGaussianBlur stdDeviation="3"/>
<feColorMatrix type="matrix" values="0 0 0 0 0.988235 0 0 0 0 0.454902 0 0 0 0 0 0 0 0 1 0"/>
<feBlend mode="normal" in2="BackgroundImageFix" result="effect1_dropShadow_0_90"/>
<feBlend mode="normal" in="SourceGraphic" in2="effect1_dropShadow_0_90" result="shape"/>
</filter>
<clipPath id="clip0_0_90">
<rect width="181" height="181" fill="white"/>
</clipPath>
</defs>
</svg>
